<?xml version="1.0" encoding="UTF-8"?>
<!DOCTYPE svg PUBLIC "-//W3C//DTD SVG 1.1//EN" "http://www.w3.org/Graphics/SVG/1.1/DTD/svg11.dtd">
<!-- Creator: CorelDRAW X7 -->
<svg xmlns="http://www.w3.org/2000/svg" xml:space="preserve" width="35.4125mm" height="35.4126mm" version="1.1" style="shape-rendering:geometricPrecision; text-rendering:geometricPrecision; image-rendering:optimizeQuality; fill-rule:evenodd; clip-rule:evenodd"
viewBox="0 0 3760 3760"
 xmlns:xlink="http://www.w3.org/1999/xlink">
 <defs>
  <style type="text/css">
   <![CDATA[
    .fil0 {fill:#F58634}
    .fil1 {fill:#AE3336}
   ]]>
  </style>
 </defs>
 <g id="Camada_x0020_1">
  <metadata id="CorelCorpID_0Corel-Layer"/>
  <g id="_2729597848688">
   <path class="fil0" d="M1809 1c1038,-39 1910,771 1949,1808 39,1038 -770,1910 -1807,1949 -1038,39 -1911,-770 -1950,-1807 -39,-1038 771,-1911 1808,-1950z"/>
   <path class="fil1" d="M1818 233c909,-34 1675,675 1709,1585 34,909 -676,1675 -1585,1709 -910,34 -1675,-676 -1709,-1585 -34,-910 675,-1675 1585,-1709z"/>
   <path class="fil0" d="M1530 783l0 328 1 328 328 -328 327 -328 -328 0 -328 0zm-687 1561l164 0 165 0 -165 -165 -164 -164 0 165 0 164zm2112 -509l-272 0 -271 0 271 271 271 272 0 -272 1 -271zm-834 -820l-356 356 -355 356 0 -498 0 0 -182 181 -121 121 -302 302 302 302 303 302 169 0 540 0 0 219 232 -232 233 -232 -233 -232 -232 -233 2 0 711 0 -355 -356 -356 -356zm-2 712l0 0 0 0 0 0zm-540 1250l-269 -270 -270 -270 370 0 0 0 709 0 0 0 0 0 -270 270 -270 270zm465 -93l0 -125 0 -125 -125 125 -125 125 125 0 125 0z"/>
  </g>
 </g>
</svg>
