<?xml version="1.0" encoding="UTF-8"?>
<!DOCTYPE svg PUBLIC "-//W3C//DTD SVG 1.1//EN" "http://www.w3.org/Graphics/SVG/1.1/DTD/svg11.dtd">
<!-- Creator: CorelDRAW X7 -->
<svg xmlns="http://www.w3.org/2000/svg" xml:space="preserve" width="35.4125mm" height="35.4124mm" version="1.1" style="shape-rendering:geometricPrecision; text-rendering:geometricPrecision; image-rendering:optimizeQuality; fill-rule:evenodd; clip-rule:evenodd"
viewBox="0 0 1049 1049"
 xmlns:xlink="http://www.w3.org/1999/xlink">
 <defs>
  <style type="text/css">
   <![CDATA[
    .fil0 {fill:#F58634}
    .fil1 {fill:#AE3336}
   ]]>
  </style>
 </defs>
 <g id="Camada_x0020_1">
  <metadata id="CorelCorpID_0Corel-Layer"/>
  <g id="_2729597811344">
   <path class="fil0" d="M505 0c289,-11 532,215 543,505 11,289 -215,532 -504,543 -289,11 -533,-215 -544,-504 -11,-289 215,-533 505,-544z"/>
   <path class="fil1" d="M507 65c254,-10 467,188 477,442 9,254 -189,467 -442,477 -254,9 -468,-189 -477,-442 -10,-254 188,-468 442,-477z"/>
   <path class="fil0" d="M376 269l34 -38 -3 -32c0,0 58,-6 58,-3 0,2 85,60 85,60l61 10 1 92 -85 110 -17 1 -34 66 15 45 -6 21 -62 42 -57 -40 -26 12 17 24 -27 16 -19 -42 -5 -39 -3 -11 47 -40 -29 -34c0,0 -47,-30 -46,-32 2,-2 62,-91 62,-91l7 -32 52 -39 -20 -26zm375 174l38 6 2 92 -86 110 -16 1 -35 66 16 45 -7 21 -61 42 -58 -40 -26 12 17 24 -27 16 -18 -42 -5 -39 -4 -11 5 -4 46 32 71 -48 8 -25 -18 -52 40 -77 19 -1 99 -128 0 0zm-88 -93l38 6 1 92 -86 110 -16 1 -35 66 16 45 -7 22 -61 41 -58 -40 -25 13 17 23 -28 16 -18 -42 -5 -39 -3 -10 5 -5 46 32 71 -48 8 -24 -19 -53 40 -77 19 -1 100 -127 0 -1z"/>
  </g>
 </g>
</svg>
