<?xml version="1.0" encoding="UTF-8"?>
<!DOCTYPE svg PUBLIC "-//W3C//DTD SVG 1.1//EN" "http://www.w3.org/Graphics/SVG/1.1/DTD/svg11.dtd">
<!-- Creator: CorelDRAW X7 -->
<svg xmlns="http://www.w3.org/2000/svg" xml:space="preserve" width="35.4126mm" height="35.4126mm" version="1.1" style="shape-rendering:geometricPrecision; text-rendering:geometricPrecision; image-rendering:optimizeQuality; fill-rule:evenodd; clip-rule:evenodd"
viewBox="0 0 2425 2425"
 xmlns:xlink="http://www.w3.org/1999/xlink">
 <defs>
  <style type="text/css">
   <![CDATA[
    .fil0 {fill:#F58634}
    .fil1 {fill:#AE3336}
   ]]>
  </style>
 </defs>
 <g id="Camada_x0020_1">
  <metadata id="CorelCorpID_0Corel-Layer"/>
  <g id="_2729539319872">
   <path class="fil0" d="M1167 1c669,-25 1232,497 1257,1166 25,669 -497,1232 -1166,1257 -669,25 -1232,-497 -1257,-1166 -25,-669 497,-1232 1166,-1257z"/>
   <path class="fil1" d="M1172 150c587,-22 1080,436 1103,1022 22,587 -436,1080 -1023,1103 -586,22 -1080,-436 -1102,-1023 -22,-586 436,-1080 1022,-1102z"/>
   <path class="fil0" d="M758 1775l0 -879 535 -1 1 107 109 1c4,14 2,342 2,386 0,127 3,259 0,386l-647 0zm122 -614l405 0c14,0 24,-3 29,-12 5,-10 5,-21 0,-30 -11,-18 -46,-12 -69,-12l-323 0c-22,0 -58,-6 -70,10 -15,21 -1,44 28,44zm-2 129l407 0c20,0 34,-8 33,-29 -2,-21 -17,-26 -37,-26l-401 0c-46,0 -44,55 -2,55zm-10 195c-18,3 -27,23 -18,40 10,17 31,13 53,13l265 0c25,0 113,3 131,-1 15,-4 25,-24 15,-41 -9,-16 -31,-12 -52,-12 -46,0 -379,-3 -394,1zm-1 -129c-18,4 -26,25 -16,41 9,16 30,12 52,12 45,0 382,2 396,-1 16,-4 24,-23 15,-40 -8,-17 -31,-13 -52,-13 -46,0 -380,-2 -395,1zm-6 250c-19,4 -28,23 -19,39 9,18 27,15 51,15 47,0 380,2 396,-1 14,-3 28,-22 18,-40 -10,-17 -30,-14 -51,-14 -49,0 -377,-2 -395,1zm740 -1076l-638 0 0 117 67 0 1 -49 534 0 0 107 113 0 -1 774 -29 0 0 68 97 -1 0 -871c-1,-8 -61,-62 -72,-73 -12,-13 -66,-63 -72,-72zm-709 209l534 1 1 107 112 1 -1 773 -29 1 0 66 96 0c4,-22 1,-622 1,-675l0 -170c0,-27 5,-26 -12,-42l-114 -110c-15,-14 -11,-19 -39,-19l-168 0c-46,0 -414,-2 -449,1l0 117 67 -1 1 -50zm-201 1105l782 0 0 -846c1,-30 5,-26 -12,-41 -19,-19 -37,-36 -57,-56 -19,-19 -38,-36 -57,-55 -16,-15 -10,-18 -39,-18l-168 0c-74,0 -149,0 -224,0 -46,0 -191,-2 -225,0l0 1016z"/>
  </g>
 </g>
</svg>
